<svg xmlns="http://www.w3.org/2000/svg" width="60" height="52" viewBox="0 0 60 52"><path fill="#fafafa" d="m0 0h60v52h-60z"/><g fill="#3a3a38"><path d="m7 44h45v1h-45z"/><path d="m6 5h1v40h-1z"/><path stroke-width=".707" d="m47 18v6h-41v-6z"/><path stroke-width=".987" d="m41 36v6h-34v-6z"/></g><path fill="#797774" stroke-width=".556" d="m46 19v4h-39v-4z"/><path fill="#797774" stroke-width=".81" d="m40 37v4h-33v-4z"/><path fill="#0063b1" stroke-width=".878" d="m25 26v6h-18v-6z"/><path fill="#83beec" stroke-width=".707" d="m24 27v4h-17v-4z"/><path fill="#0063b1" d="m31 8v6h-24v-6z"/><path fill="#83beec" stroke-width=".793" d="m30 9v4h-23v-4z"/><path fill="#ed8733" stroke-width=".878" d="m38 13v6h-31v-6z"/><path fill="#f8db8f" stroke-width=".707" d="m37 14v4h-30v-4z"/><path fill="#ed8733" stroke-width=".878" d="m47 31v6h-40v-6z"/><path fill="#f8db8f" stroke-width=".707" d="m46 32v4h-39v-4z"/></svg>