<svg xmlns="http://www.w3.org/2000/svg" width="60" height="52" viewBox="0 0 60 52"><path fill="#fafafa" d="m0 0h60v52h-60z"/><g fill="#3a3a38"><path d="m7 44h45v1h-45z"/><path d="m6 5h1v40h-1z"/><path stroke-width=".707" d="m40 10v13h-13v-13z"/></g><path fill="#797774" stroke-width=".556" d="m39 11v11h-11v-11z"/><path fill="#0063b1" d="m17 10v13h-10v-13z"/><path fill="#83beec" stroke-width=".793" d="m16 11v11h-9v-11z"/><path fill="#ed8733" stroke-width=".878" d="m28 10v13h-11v-13z"/><path fill="#f8db8f" stroke-width=".707" d="m27 11v11h-10v-11z"/><path fill="#3a3a38" stroke-width=".707" d="m40 27v13h-10v-13z"/><path fill="#797774" stroke-width=".556" d="m39 28v11h-8v-11z"/><path fill="#0063b1" d="m21 27v13h-14v-13z"/><path fill="#83beec" stroke-width=".793" d="m20 28v11h-13v-11z"/><path fill="#ed8733" stroke-width=".878" d="m31 27v13h-10v-13z"/><path fill="#f8db8f" stroke-width=".707" d="m30 28v11h-9v-11z"/></svg>