<svg xmlns="http://www.w3.org/2000/svg" width="60" height="52" viewBox="0 0 60 52"><path fill="#fafafa" d="m0 0h60v52h-60z"/><g fill="#3a3a38"><path stroke-width=".707" d="m12 7h15v14h-15z"/><path d="m7 44h45v1h-45z"/><path d="m6 5h1v40h-1z"/></g><path fill="#797774" stroke-width=".556" d="m13 8h13v13h-13z"/><path fill="#ed8733" stroke-width=".878" d="m12 21h15v14h-15z"/><path fill="#f8db8f" stroke-width=".707" d="m13 22h13v12h-13z"/><path fill="#0063b1" d="m12 34h15v10h-15z"/><path fill="#83beec" stroke-width=".793" d="m13 35h13v9h-13z"/><path fill="#3a3a38" stroke-width=".707" d="m32 7h15v13h-15z"/><path fill="#797774" stroke-width=".556" d="m33 8h13v11h-13z"/><path fill="#ed8733" stroke-width=".878" d="m32 19h15v11h-15z"/><path fill="#f8db8f" stroke-width=".707" d="m33 20h13v9h-13z"/><path fill="#0063b1" d="m32 29h15v15h-15z"/><path fill="#83beec" stroke-width=".793" d="m33 30h13v14h-13z"/></svg>