<svg xmlns="http://www.w3.org/2000/svg" width="60" height="52" viewBox="0 0 60 52"><path fill="#fafafa" d="m0 0h60v52h-60z"/><g fill="#3a3a38"><path stroke-width=".707" d="m21 16h6v29h-6z"/><path stroke-width=".987" d="m42 29h6v15h-6z"/><path d="m7 44h45v1h-45z"/><path d="m6 5h1v40h-1z"/></g><path fill="#797774" stroke-width=".556" d="m22 17h4v27h-4z"/><path fill="#797774" stroke-width=".81" d="m43 30h4v14h-4z"/><path fill="#ed8733" stroke-width=".878" d="m37 13h6v31h-6z"/><path fill="#f8db8f" stroke-width=".707" d="m38 14h4v30h-4z"/><path fill="#0063b1" stroke-width=".878" d="m32 20h6v24h-6z"/><path fill="#83beec" stroke-width=".707" d="m33 21h4v23h-4z"/><path fill="#ed8733" stroke-width=".878" d="m16 20h6v24h-6z"/><path fill="#f8db8f" stroke-width=".707" d="m17 21h4v23h-4z"/><path fill="#0063b1" d="m11 26h6v18h-6z"/><path fill="#83beec" stroke-width=".793" d="m12 27h4v17h-4z"/></svg>