<svg xmlns="http://www.w3.org/2000/svg" width="60" height="52" viewBox="0 0 60 52"><path fill="#fafafa" d="m0 0h60v52h-60z"/><path fill="#3a3a38" d="m7 44h45v1h-45z"/><path fill="#3a3a38" d="m6 5h1v40h-1z"/><path fill="#0063b1" stroke-width=".878" d="m33 18h15v15h-15z"/><path fill="#83beec" stroke-width=".707" d="m34 19h13v13h-13z"/><path fill="#3a3a38" d="m17.5 18.5 1 1 24-12-.5-1.5z"/><path fill="#3a3a38" stroke-width=".987" d="m33 32h15v12h-15z"/><path fill="#797774" stroke-width=".81" d="m34 33h13v11h-13z"/><path fill="#0063b1" stroke-width=".878" d="m12 25h15v11h-15z"/><path fill="#83beec" stroke-width=".707" d="m13 26h13v9h-13z"/><path fill="#3a3a38" stroke-width=".987" d="m12 35h15v9h-15z"/><path fill="#797774" stroke-width=".81" d="m13 36h13v8h-13z"/></svg>