<svg xmlns="http://www.w3.org/2000/svg" width="60" height="52" viewBox="0 0 60 52"><path fill="#fafafa" d="m0 0h60v52h-60z"/><g fill="#3a3a38"><path stroke-width=".707" d="m15 35h6v9h-6z"/><path stroke-width=".987" d="m43 22h6v22h-6z"/><path d="m7 44h45v1h-45z"/><path d="m6 5h1v40h-1z"/></g><path fill="#797774" stroke-width=".556" d="m16 36h4v8h-4z"/><path fill="#797774" stroke-width=".81" d="m44 23h4v21h-4z"/><path fill="#0063b1" stroke-width=".878" d="m38 26h6v18h-6z"/><path fill="#83beec" stroke-width=".707" d="m39 27h4v17h-4z"/><path fill="#0063b1" d="m10 27h6v17h-6z"/><path fill="#83beec" stroke-width=".793" d="m11 28h4v16h-4z"/><path fill="#3a3a38" stroke-width=".987" d="m29 27h6v17h-6z"/><path fill="#797774" stroke-width=".81" d="m30 28h4v16h-4z"/><path fill="#0063b1" stroke-width=".878" d="m24 18h6v26h-6z"/><path fill="#83beec" stroke-width=".707" d="m25 19h4v25h-4z"/><path fill="#3a3a38" d="m13.5 21.5 1 1 15.5-15.5 11.5 11.5 1-1-12.5-12.5z"/></svg>