<svg xmlns="http://www.w3.org/2000/svg" width="24" height="24" viewBox="0 0 6.35 6.35"><g><path fill="#1e8bcd" d="m.52916667 293.29581h.26458333v-1.1705c0-.0358.001376-.073.004129-.11148l-.30690296.26974c-.0220199.0183-.0435811.0247-.0646836.0192-.0201849-.006-.0344061-.0152-.0426636-.0275l-.0729411-.10052.52710237-.46655.22054319.00011v1.5875h.2645834v.2645l-.79375-.00011z" transform="translate(0 -290.64998)"/><g stroke-width=".265" transform="translate(0 -290.64998)"><path fill="#fafafa" d="m1.8520833 291.44373v4.7625h3.7041667v-3.77576l-1.0583333-.98674z"/><path fill="#3a3a38" d="m1.8520833 291.17915c-.1465792 0-.2645833.118-.2645833.26458v4.7625c0 .14658.1180041.26459.2645833.26459h3.7041667c.1465792 0 .2645834-.11801.2645834-.26459v-2.67477-.96341-.055c0-.11924.026159-.11287-.1599769-.28246l-.87508-.85647c-.1877285-.19497-.1881778-.19497-.2896669-.19497h-.0877245-.1750517zm0 .26458h2.3812501v1.05834c0 .14658.1180041.26458.2645833.26458h1.0583333v3.43958h-3.7041667z"/><path fill="#fff" fill-rule="evenodd" d="m4.4979167 292.50207h1.0583333l-1.0583333-1.05834z"/><path fill="#fafafa" d="m4.4979167 291.44373 1.0583333 1.05834h-1.0583333z"/><rect width="1.581" height=".529" x="2.381" y="292.502" fill="#1e8bcd" ry=".132"/><rect width="2.646" height=".265" x="-5.021" y="293.825" fill="#797774" ry=".13" transform="scale(-1 1)"/><rect width="2.646" height=".265" x="-5.021" y="294.619" fill="#797774" ry=".123" transform="scale(-1 1)"/><rect width="2.646" height=".265" x="-5.021" y="295.412" fill="#797774" ry=".13" transform="scale(-1 1)"/></g></g></svg>