<?xml-stylesheet type="text/css" href="icons.css" ?><svg xmlns="http://www.w3.org/2000/svg" viewBox="0 0 24 24"><path fill="#fafafa" stroke="#3a3a38" stroke-linecap="round" stroke-linejoin="round" d="m12 2.5a9.5 5.94119 0 0 0 -9.5 5.94 9.5 5.94119 0 0 0 9.5 5.94 9.5 5.94119 0 0 0 9.5-5.94 9.5 5.94119 0 0 0 -9.5-5.94zm-3.5625 11.875a3.5625021 1.801 0 0 0 -3.5625 1.8 3.5625021 1.801 0 0 0 3.5625 1.8 3.5625021 1.801 0 0 0 3.5625-1.8 3.5625021 1.801 0 0 0 -3.5625-1.8zm-2.375 3.5625a2.3749969 1.2 0 0 0 -2.375 1.2 2.3749969 1.2 0 0 0 2.375 1.2 2.3749969 1.2 0 0 0 2.375-1.2 2.3749969 1.2 0 0 0 -2.375-1.2zm-2.375 2.375a1.2.594 0 0 0 -1.2.594 1.2.594 0 0 0 1.2.594 1.2.594 0 0 0 1.2-.594 1.2.594 0 0 0 -1.2-.594z" class="icn icn--shape-color"/></svg>