<svg xmlns="http://www.w3.org/2000/svg" version="1.1" viewBox="0 0 24 24"><g><path fill="#fafafa" d="m2.9061 4.5061h18.188c0.2216 0 0.4 0.1784 0.4 0.4v14.188c0 0.2216-0.1784 0.4-0.4 0.4h-18.188c-0.2216 0-0.4-0.1784-0.4-0.4v-14.188c0-0.2216 0.1784-0.4 0.4-0.4z" stop-color="#000" style="paint-order:fill markers stroke"/><path fill="#3a3a38" d="m2.9062 4.0059c-0.48995 0-0.90039 0.41044-0.90039 0.90039v14.188c0 0.48995 0.41044 0.90039 0.90039 0.90039h18.188c0.48995 0 0.90039-0.41044 0.90039-0.90039v-14.188c0-0.48995-0.41044-0.90039-0.90039-0.90039zm0.099609 1h17.988v13.988h-17.988z" stop-color="#000" style="paint-order:fill markers stroke"/></g><rect width="13.994" height="2" x="5.006" y="7" fill="#3a3a38" style="paint-order:fill markers stroke"/><path fill="#797774" d="m5.0059 11v6h6v-6z" style="paint-order:fill markers stroke"/><path fill="#797774" d="m13 11v6h6v-6z" style="paint-order:fill markers stroke"/></svg>