<?xml-stylesheet type="text/css" href="icons.css" ?><svg xmlns="http://www.w3.org/2000/svg" viewBox="0 0 24 24"><path fill="none" stroke="#1e8bcd" stroke-linecap="round" stroke-linejoin="round" d="m 6.5,5.5 h 5 v 14 h 6" class="icn icn--highlight-color-line"/><path fill="#83beec" stroke="#1e8bcd" stroke-linecap="round" stroke-linejoin="round" d="M 6.5,5 A 1.5,1.5 0 0 1 5,6.5 1.5,1.5 0 0 1 3.5,5 1.5,1.5 0 0 1 5,3.5 1.5,1.5 0 0 1 6.5,5 Z" class="icn icn--highlight-color"/><path fill="#83beec" stroke="#1e8bcd" stroke-linecap="round" stroke-linejoin="round" d="M 20.5,19 A 1.5,1.5 0 0 1 19,20.5 1.5,1.5 0 0 1 17.5,19 1.5,1.5 0 0 1 19,17.5 1.5,1.5 0 0 1 20.5,19 Z" class="icn icn--highlight-color"/></svg>