<?xml-stylesheet type="text/css" href="icons.css" ?><svg xmlns="http://www.w3.org/2000/svg" viewBox="0 0 24 24"><g id="background" fill="#fafafa" stroke="#3a3a38" stroke-linecap="round" stroke-linejoin="round" class="icn icn--area-color"><path d="m 2.5,2.5 v 17 h 13 v -17 z"/><path d="m 4.5,4.5 v 17 h 13 v -17 z"/></g><g id="symbol-background" fill="#fff" stroke="#fff" stroke-linecap="round" stroke-linejoin="round" stroke-width="3" class="icn icn--background"><path d="m 11.5,16 c 0,-3 2.5,-4.5 5,-4.5 2,0 4.5,1.5 5,4 v 0"/><path d="m 21.5,12.5 v 3 h -3"/><path d="m 21.5,17 c 0,3 -2.5,4.5 -5,4.5 -2,0 -4.5,-1.5 -5,-4 v 0"/><path d="m 11.5,20.5 v -3 h 3"/></g><g id="symbol" fill="none" stroke="#18ab50" stroke-linecap="round" stroke-linejoin="round" class="icn icn--positiv-color-color"><path d="m 11.5,16 c 0,-3 2.5,-4.5 5,-4.5 2,0 4.5,1.5 5,4 v 0"/><path d="m 21.5,12.5 v 3 h -3"/><path d="m 21.5,17 c 0,3 -2.5,4.5 -5,4.5 -2,0 -4.5,-1.5 -5,-4 v 0"/><path d="m 11.5,20.5 v -3 h 3"/></g></svg>