<svg xmlns="http://www.w3.org/2000/svg" xmlns:svg="http://www.w3.org/2000/svg" id="svg12" version="1.1" viewBox="0 0 24 24"><metadata id="metadata18"/><path id="path2" fill="#fafafa" d="m3 4v16h18v-16z"/><path id="path4" fill="#1e8bcd" d="m 15.373223,9.0629853 a 0.5,0.5 0 0 1 0.4,0.2 l 3,2.9999997 a 0.5,0.5 0 1 1 -0.7,0.7 l -2.1,-2.1 v 5.8 a 0.5,0.5 0 1 1 -1,0 v -5.8 l -2.1,2.1 a 0.5,0.5 0 1 1 -0.7,-0.7 l 2.8,-2.9999997 a 0.5,0.5 0 0 1 0.4,-0.2 z"/><path id="path6" fill="#3a3a38" d="m3 3c-.554 0-1 .446-1 1v16c0 .554.446 1 1 1h18c.554 0 1-.446 1-1v-16c0-.554-.446-1-1-1zm0 1h18v16h-18z"/><path id="path8" fill="#0063b1" d="M 22,4 C 22,3.446 21.554,3 21,3 H 3 C 2.446,3 2,3.446 2,4 v 2 c 0,0.554 0.446,1 1,1 h 18 c 0.554,0 1,-0.446 1,-1 z M 21,4 V 6 H 3 V 4 Z"/><path id="path10" fill="#83beec" d="M 21,4 H 3 v 2 h 18 z"/></svg>