<svg xmlns="http://www.w3.org/2000/svg" viewBox="0 0 24 24"><g fill="#d42314"><rect width="4" height="1" x="6" y="11" ry=".5"/><rect width="4" height="1" x="12" y="11" ry=".5"/><rect width="4" height="1" x="18" y="11" ry=".429"/><path d="m1.4941406 9.0019531a.49824866.49824866 0 0 0 -.4921875.4980469v4a.49824866.49824866 0 0 0 .7734375.414062l3-2a.49824866.49824866 0 0 0 0-.828124l-3-2.0000005a.49824866.49824866 0 0 0 -.28125-.083984z"/></g><path fill="#3a3a38" d="m7 13c-.554 0-1 .446-1 1v8h1v-8h5.042969c-.105089-.351547-.0091-.732411.25-.992188l.007812-.007812zm8.128906 0 1 1h3.742188l1-1z"/><path fill="#fafafa" d="m7 14v8h5.042969c.04701-.159202.132929-.304191.25-.421875l3.578125-3.578125-3.578125-3.578125c-.117071-.117684-.20299-.262673-.25-.421875zm9.128906 0 1.871094 1.871094 1.871094-1.871094z"/><path fill="#3a3a38" d="m7 10c-.554 0-1-.446-1-1v-7h1v7h14v-7h1v7c0 .554-.446 1-1 1z"/><path fill="#fafafa" d="m7-9h14v7h-14z" transform="scale(1 -1)"/><path fill="#ed3d3b" d="m22.285683 12.999968-4.285715 4.285714-4.285715-4.285714-.714285.714285 4.285714 4.285715-4.285714 4.285715.714285.714285 4.285715-4.285714 4.285715 4.285714.714285-.714285-4.285714-4.285715 4.285714-4.285715z"/><path fill="#ff9198" d="m2 10.5v2s1.5-1 1.5-1z"/></svg>