<svg xmlns="http://www.w3.org/2000/svg" viewBox="0 0 24 24"><path fill="#3a3a38" d="m12 5c-.554 0-1 .446-1 1v12c0 .554.446 1 1 1h2c.554 0 1-.446 1-1v-.871094l-2.707031-2.707031a.99955814.99955814 0 0 1 0-1.414063l.714843-.714843a.99955814.99955814 0 0 1 .691407-.292969.99955814.99955814 0 0 1 .722656.292969l.578125.578125v-6.871094c0-.554-.446-1-1-1z"/><g fill="#3a3a38" transform="matrix(0 -1 -1 0 0 0)"><rect width="20" height="1" x="-22" y="-5" ry=".5"/><path fill="#3a3a38" d="m2.5 19c-.277 0-.5.223-.5.5s.223.5.5.5h11.371094l1-1zm18.628906 0 .777344.777344c.054833-.080256.09375-.172393.09375-.277344 0-.277-.223-.5-.5-.5z" transform="matrix(0 -1 -1 0 0 0)"/></g><path fill="#c8c6c4" d="m12 6v7.728516a.99955814.99955814 0 0 1 .292969-.720704l.714843-.714843a.99955814.99955814 0 0 1 .691407-.292969.99955814.99955814 0 0 1 .300781.042969v-6.042969zm0 7.728516v4.271484h2v-1.871094l-1.707031-1.707031a.99955814.99955814 0 0 1 -.292969-.693359z"/><path fill="#ed3d3b" d="m6.4882812 21c-.2705497 0-.4882812.217731-.4882812.488281v.023438c0 .27055.2177315.488281.4882812.488281h5.5546878a.99955814.99955814 0 0 1 .25-.421875l.578125-.578125zm10.6406248 0-1 1h3.742188l-1-1z"/><rect width="4" height="11" x="6" y="8" fill="#3a3a38" ry="1"/><path fill="#c8c6c4" d="m7 9h2v9h-2z"/><path fill="#3a3a38" d="m17 11c-.554 0-1 .446-1 1v1.871094l2 2 2-2v-1.871094c0-.554-.446-1-1-1z"/><path fill="#c8c6c4" d="m17 12v2.871094l1 1 1-1v-2.871094z"/><g fill="#ed3d3b"><rect width="15" height="1" x="-18" y="2" ry=".488" transform="rotate(-90)"/><path d="m22.285683 12.999968-4.285715 4.285714-4.285715-4.285714-.714285.714285 4.285714 4.285715-4.285714 4.285715.714285.714285 4.285715-4.285714 4.285715 4.285714.714285-.714285-4.285714-4.285715 4.285714-4.285715z"/></g></svg>