<svg xmlns="http://www.w3.org/2000/svg" xmlns:xlink="http://www.w3.org/1999/xlink" version="1.1" viewBox="0 0 24 24"><defs><linearGradient id="linearGradient4324" x1="6" x2="26" y1="26" y2="6" gradientUnits="userSpaceOnUse"><stop offset="0" stop-color="#fafafa"/><stop offset=".744" stop-color="#fafafa"/><stop offset="1" stop-color="#1e8bcd"/></linearGradient><linearGradient id="linearGradient5309" x1="13.198" x2="27.32" y1="18.581" y2="4.459" gradientUnits="userSpaceOnUse"><stop offset="0" stop-color="#fafafa" stop-opacity="0"/><stop offset=".477" stop-color="#fbfbfb" stop-opacity="0"/><stop offset=".532" stop-color="#fff"/><stop offset=".592" stop-color="#1e8bcd"/><stop offset=".81" stop-color="#1e8bcd"/><stop offset="1" stop-color="#1e8bcd"/></linearGradient></defs><g transform="matrix(.71429 0 0 .71429 2 -.85714)"><rect width="24" height="24" y="8" fill="#b8b8b8" stroke-width="2.182" ry="2.182"/><g stroke-width="2"><path fill="#3a3a38" d="m6 4c-1.108 0-2 0.892-2 2v20c0 1.108 0.892 2 2 2h20c1.108 0 2-0.892 2-2v-20c0-1.108-0.892-2-2-2zm0 2h20v20h-20z"/><path fill="#4d4d4d" d="m6 6v20h20v-20zm2 2h16v16h-16z"/><path fill="url(#linearGradient4324)" d="m6 6h20v20h-20z"/><path fill="url(#linearGradient5309)" d="m6 4c-1.108 0-2 0.892-2 2v20c0 1.108 0.892 2 2 2h20c1.108 0 2-0.892 2-2v-20c0-1.108-0.892-2-2-2zm0 2h20v20h-20z"/></g></g></svg>