<svg xmlns="http://www.w3.org/2000/svg" xmlns:svg="http://www.w3.org/2000/svg" id="svg5248" version="1.1" viewBox="0 0 24 24"><path id="path5240" fill="#fafafa" d="M 3,6 V 20 H 21 V 6 Z" style="fill:#63bbee;fill-opacity:1;stroke-width:.999995"/><path id="path5242" fill="#3a3a38" d="m3 3c-.554 0-1 .446-1 1v16c0 .554.446 1 1 1h18c.554 0 1-.446 1-1v-16c0-.554-.446-1-1-1zm0 1h18v16h-18z" style="fill:#0063b1;fill-opacity:1"/><path id="path5244" fill="#0063b1" d="m22 4c0-.554-.446-1-1-1h-18c-.554 0-1 .446-1 1v2c0 .554.446 1 1 1h18c.554 0 1-.446 1-1zm-1 0v2h-18v-2z"/><g id="g5108" fill="#fafafa" stroke="#0369a3" stroke-linecap="round" stroke-linejoin="round" transform="matrix(0.77778287,0,0,0.78182361,1.8888456,4.1181167)" style="fill:#fff;fill-opacity:1;stroke-width:1.28238"><path id="path5106" d="m 8.5,17.5 v -11 l 9,5.5 z" style="fill:#fafafa;fill-opacity:1;stroke-width:1.28238"/></g><path id="path7081" fill="#fafafa" d="M 3,3.9999997 V 6.0000003 H 21 V 3.9999997 Z" style="fill:#0063b1;fill-opacity:1;stroke-width:.999994"/></svg>