<?xml-stylesheet type="text/css" href="icons.css" ?><svg xmlns="http://www.w3.org/2000/svg" viewBox="0 0 24 24"><path fill="#fafafa" stroke="#3a3a38" stroke-linecap="round" stroke-linejoin="round" d="M 12,2.5 A 9.5,9.5 0 0 0 2.5,12 9.5,9.5 0 0 0 12,21.5 9.5,9.5 0 0 0 21.5,12 9.5,9.5 0 0 0 12,2.5 Z" class="icn icn--shape-color"/><path fill="#fafafa" stroke="#3a3a38" stroke-linecap="round" stroke-linejoin="round" d="m 18,12 a 6,6 0 0 1 -6,6 6,6 0 0 1 -6,-6 6,6 0 0 1 6,-6 6,6 0 0 1 6,6 z" class="icn icn--shape-color"/></svg>