<svg xmlns="http://www.w3.org/2000/svg" xmlns:svg="http://www.w3.org/2000/svg" id="svg8" version="1.1" viewBox="0 0 24 24"><metadata id="metadata14"/><path id="path6" d="M 12 5 C 9.7899998 5 8 6.79 8 9 L 10 9 C 10 7.9 10.9 7 12 7 C 13.1 7 14 7.9 14 9 C 14 9.55 13.780156 10.050156 13.410156 10.410156 L 12.169922 11.669922 C 11.449922 12.399922 11 13.4 11 14.5 L 11 15 L 13 15 C 13 13.5 13.449922 12.899922 14.169922 12.169922 L 15.070312 11.25 C 15.640313 10.68 16 9.88 16 9 C 16 6.79 14.21 5 12 5 z M 11 17 L 11 19 L 13 19 L 13 17 L 11 17 z"/></svg>