<svg xmlns="http://www.w3.org/2000/svg" viewBox="0 0 24 24"><path fill="#fafafa" d="m5 3v18h14v-14.2705905l-4-3.7294095z"/><path fill="#3a3a38" d="m5 2c-.554 0-1 .446-1 1v18c0 .554.446 1 1 1h14c.554 0 1-.446 1-1v-10.109375-3.6412209-.2079239c0-.4506799.09887-.4265951-.604637-1.0675892l-3.307389-3.2370335c-.709525-.7368575-.711223-.7368575-1.094804-.7368575h-.331557-.661613zm0 1h9v4c0 .554.446 1 1 1h4v13h-14z"/><path fill="#fafafa" fill-rule="evenodd" d="m15 7h4l-4-4z"/><path fill="#ed8733" d="m6 17h11v3h-11z"/><path fill="#f8db8f" stroke-width=".522" d="m7 18h9v1h-9z"/></svg>