<svg xmlns="http://www.w3.org/2000/svg" viewBox="0 0 24 24"><g fill="#ed3d3b"><rect width="4" height="1" x="6" y="11" ry=".5"/><rect width="4" height="1" x="12" y="11" ry=".5"/><rect width="4" height="1" x="18" y="11" ry=".429"/><path d="m1.4941406 9.0019531a.49824866.49824866 0 0 0 -.4921875.4980469v4a.49824866.49824866 0 0 0 .7734375.414062l3-2a.49824866.49824866 0 0 0 0-.828124l-3-2.0000005a.49824866.49824866 0 0 0 -.28125-.083984z"/></g><path fill="#3a3a38" d="m7 13c-.554 0-1 .446-1 1v8h1v-8h14v8h1v-8c0-.554-.446-1-1-1z"/><path fill="#fafafa" d="m7 14h14v8h-14z"/><path fill="#3a3a38" d="m7 10c-.554 0-1-.446-1-1v-7h1v7h14v-7h1v7c0 .554-.446 1-1 1z"/><path fill="#fafafa" d="m7-9h14v7h-14z" transform="scale(1 -1)"/></svg>