<svg xmlns="http://www.w3.org/2000/svg" width="24" height="24" fill="none" viewBox="0 0 24 24"><rect width="2" height="19" x="2.5" y="2.5" fill="#FAFAFA" stroke="#3A3A38"/><rect width="2" height="19" x="19.5" y="2.5" fill="#FAFAFA" stroke="#3A3A38"/><rect width="15" height="9" x="4.5" y="12.5" fill="#FAFAFA" stroke="#3A3A38"/><rect width="15" height="9" x="4.5" y="2.5" fill="#FAFAFA" stroke="#3A3A38"/><mask id="mask0_2_26" width="14" height="9" x="5" y="2" maskUnits="userSpaceOnUse" style="mask-type:alpha"><rect width="14" height="9" x="5" y="2" fill="#D9D9D9"/></mask><g mask="url(#mask0_2_26)"><path fill="#83BEEF" stroke="#0063B1" d="m16.364 9.1668 2.3032-2.4386 2.8333 3v1.7718h-7.34l2.2035-2.3332z"/><path fill="#ED8733" d="m8 5.5c0 0.66304-0.26339 1.2989-0.73223 1.7678s-1.1047 0.73223-1.7678 0.73223-1.2989-0.26339-1.7678-0.73223-0.73223-1.1047-0.73223-1.7678 0.26339-1.2989 0.73223-1.7678 1.1047-0.73223 1.7678-0.73223 1.2989 0.26339 1.7678 0.73223 0.73223 1.1047 0.73223 1.7678z"/><path fill="#F8DB8F" d="m7 5.5c0 0.39782-0.15804 0.77936-0.43934 1.0607s-0.66284 0.43934-1.0607 0.43934-0.77936-0.15804-1.0607-0.43934-0.43934-0.66284-0.43934-1.0607 0.15804-0.77936 0.43934-1.0607 0.66284-0.43934 1.0607-0.43934 0.77936 0.15804 1.0607 0.43934 0.43934 0.66284 0.43934 1.0607z"/></g><mask id="mask1_2_26" width="14" height="9" x="5" y="12" maskUnits="userSpaceOnUse" style="mask-type:alpha"><rect width="14" height="9" x="5" y="12" fill="#D9D9D9"/></mask><g mask="url(#mask1_2_26)"><path fill="#83BEEF" stroke="#0063B1" d="m16.364 19.167 2.3032-2.4386 2.8333 3v1.7718h-7.34l2.2035-2.3332z"/><path fill="#ED8733" d="M9 15.5C9 16.163 8.73661 16.7989 8.26777 17.2678C7.79893 17.7366 7.16304 18 6.5 18C5.83696 18 5.20107 17.7366 4.73223 17.2678C4.26339 16.7989 4 16.163 4 15.5C4 14.837 4.26339 14.2011 4.73223 13.7322C5.20107 13.2634 5.83696 13 6.5 13C7.16304 13 7.79893 13.2634 8.26777 13.7322C8.73661 14.2011 9 14.837 9 15.5Z"/><path fill="#F8DB8F" d="m8 15.5c0 0.3978-0.15804 0.7794-0.43934 1.0607s-0.66284 0.4393-1.0607 0.4393-0.77936-0.158-1.0607-0.4393-0.43934-0.6629-0.43934-1.0607 0.15804-0.7794 0.43934-1.0607 0.66284-0.4393 1.0607-0.4393 0.77936 0.158 1.0607 0.4393 0.43934 0.6629 0.43934 1.0607z"/></g><rect width="2" height="2" x="2.5" y="5.5" stroke="#3A3A38"/><rect width="2" height="2" x="2.5" y="9.5" stroke="#3A3A38"/><rect width="2" height="2" x="2.5" y="13.5" stroke="#3A3A38"/><rect width="2" height="2" x="2.5" y="17.5" stroke="#3A3A38"/><line x1="3" x2="4" y1="3.5" y2="3.5" stroke="#3A3A38"/><line x1="20" x2="21" y1="3.5" y2="3.5" stroke="#3A3A38"/><rect width="2" height="2" x="19.5" y="5.5" stroke="#3A3A38"/><rect width="2" height="2" x="19.5" y="9.5" stroke="#3A3A38"/><rect width="2" height="2" x="19.5" y="13.5" stroke="#3A3A38"/><rect width="2" height="2" x="19.5" y="17.5" stroke="#3A3A38"/></svg>