<svg xmlns="http://www.w3.org/2000/svg" xmlns:xlink="http://www.w3.org/1999/xlink" viewBox="0 0 24 24"><linearGradient id="a" x1="21" x2="19" y1="-3.291" y2="12" gradientTransform="matrix(0 1 -1 0 24 0)" gradientUnits="userSpaceOnUse"><stop offset="0" stop-color="#d7d7d7"/><stop offset=".3" stop-color="#f7f7f7"/><stop offset="1" stop-color="#fff"/></linearGradient><path fill="#3a3a38" d="m2.5 4c-.277 0-.5.223-.5.5v1 13 1c0 .277.223.5.5.5h1 17 1c.277 0 .5-.223.5-.5v-1-13-1c0-.277-.223-.5-.5-.5h-1-17zm.5 1h18v14h-18z"/><path fill="url(#a)" d="m21 5h-18v14h18z"/><g fill="#1e8bcd"><rect width="6" height="2" x="9" y="10" ry="1"/><rect width="10" height="1" x="7" y="14" ry=".248"/></g></svg>