<svg xmlns="http://www.w3.org/2000/svg" width="68" height="54" viewBox="0 0 63.75 50.625"><path fill="#3a3a38" d="m2.8125 2.8125h57.1875v44.0625h-57.1875z"/><path fill="#fafafa" d="m3.75 3.75h55.3125v42.1875h-55.3125z"/><path fill="#797774" d="m54.375 6.5624999c.519375 0 .9375.418125.9375.9375v34.6875001c0 .519375-.418125.9375-.9375.9375h-45.9375c-.519375 0-.9375-.418125-.9375-.9375l-.0000004-34.6875001c0-.519375.418125-.9375.9375-.9375zm-.9375.9375h-44.0625004c-.519375 0-.9375.418125-.9375.9375l.0000004 32.8125001c0 .519375.418125.9375.9375.9375h44.0625c.519375 0 .9375-.418125.9375-.9375v-32.8125001c0-.519375-.418125-.9375-.9375-.9375z"/><g fill="#1e8bcd"><rect width="15.938" height="1.875" x="23.438" y="26.25" rx=".637" ry="0"/><rect width="25.313" height="1.875" x="18.75" y="21.563" rx="1.012" ry="0"/></g></svg>