<svg xmlns="http://www.w3.org/2000/svg" viewBox="0 0 24 24"><g fill="#3a3a38"><rect width="18" height="3" x="3" y="2" rx="1"/><rect width="18" height="2" x="3" y="8" rx=".5"/><rect width="7" height="1" x="3" y="13" rx=".5"/><rect width="7" height="1" x="11" y="13" rx=".5"/><rect width="2" height="1" x="19" y="13" rx=".5" ry=".428"/><rect width="2" height="1" x="3" y="17" rx=".5" ry=".428"/><rect width="2" height="1" x="7" y="17" rx=".5" ry=".428"/><rect width="2" height="1" x="11" y="17" rx=".5" ry=".428"/><rect width="2" height="1" x="15" y="17" rx=".5" ry=".428"/><rect width="2" height="1" x="19" y="17" rx=".5" ry=".428"/><rect width="18" height="2" x="3" y="20" rx=".5"/></g></svg>