<svg xmlns="http://www.w3.org/2000/svg" width="68" height="54" viewBox="0 0 63.75 50.625"><path fill="#3a3a38" d="m2.8125 2.8125h57.1875v44.0625h-57.1875z"/><path fill="#fafafa" d="m3.75 3.75h55.3125v42.1875h-55.3125z"/><path fill="#797774" d="m9 7c-.5540003 0-1 .446-1 1v7c0 .554.4459997 1 1 1h49c.554 0 1-.446 1-1v-7c0-.554-.446-1-1-1zm1 1h47c.554 0 1 .446 1 1v5c0 .554-.446 1-1 1h-47c-.554 0-1-.446-1-1v-5c0-.554.446-1 1-1z" transform="scale(.93749999)"/><rect width="38.438" height="2.813" x="12.188" y="9.375" fill="#1e8bcd" rx=".938"/><g fill="#797774"><path d="m54.375 31.875c.519375 0 .9375.418125.9375.9375v9.375c0 .519375-.418125.9375-.9375.9375h-45.9375c-.519375 0-.9375-.418125-.9375-.9375v-9.375c0-.519375.418125-.9375.9375-.9375zm-.9375.9375h-44.0625c-.519375 0-.9375.418125-.9375.9375v7.5c0 .519375.418125.9375.9375.9375h44.0625c.519375 0 .9375-.418125.9375-.9375v-7.5c0-.519375-.418125-.9375-.9375-.9375z"/><path d="m54.375 18.75c.519375 0 .9375.418125.9375.9375v9.375c0 .519375-.418125.9375-.9375.9375h-45.9375004c-.519375 0-.9375-.418125-.9375-.9375v-9.375c0-.519375.418125-.9375.9375-.9375zm-.9375.9375h-44.0625004c-.519375 0-.9375.418125-.9375.9375v7.5c0 .519375.418125.9375.9375.9375h44.0625004c.519375 0 .9375-.418125.9375-.9375v-7.5c0-.519375-.418125-.9375-.9375-.9375z"/></g></svg>