<svg xmlns="http://www.w3.org/2000/svg" viewBox="0 0 24 24"><path fill="#1e8bcd" d="m5.4980469 6.9960938c-.127809 0-.2555807.048549-.3535157.1464843-.1958679.195869-.1958679.5131154 0 .7089844l3.1484376 3.1484375h-6.7929688c-.277 0-.5.223-.5.5s.223.5.5.5h6.7929688l-3.1484376 3.148438c-.195868.195868-.1958679.513115 0 .708984.097935.09793.2257067.146484.3535157.146484.127808 0 .2575387-.04855.3554687-.146484l4-4.003906c.047015-.047013.084075-.103236.109375-.166016.02334-.057904.0371094-.12105.0371094-.1875s-.013769-.129596-.037109-.1875c-.0253-.06278-.06236-.119003-.109375-.166016l-4-4.0039059c-.0979304-.09793-.2276611-.1464844-.3554691-.1464843z"/><g fill="#3a3a38" transform="matrix(-1 0 0 1 2 0)"><rect width="19" height="1" x="-21" y="1" ry=".5"/><rect width="19" height="1" x="-21" y="21" ry=".436"/><rect width="11" height="1" x="-21" y="16" ry=".5"/><rect width="11" height="1" x="-21" y="6" ry=".5"/><rect width="11" height="1" x="-21" y="11" ry=".5"/></g></svg>