<?xml-stylesheet type="text/css" href="icons.css" ?><svg xmlns="http://www.w3.org/2000/svg" viewBox="0 0 24 24"><path fill="#83beec" stroke="#1e8bcd" stroke-linecap="round" stroke-linejoin="round" d="m 6.5,8.5 h 11" class="icn icn--highlight-color"/><path fill="#83beec" stroke="#1e8bcd" stroke-linecap="round" stroke-linejoin="round" d="m 21.5,8.5 -4,-2 v 4 z" class="icn icn--highlight-color"/><path fill="#83beec" stroke="#1e8bcd" stroke-linecap="round" stroke-linejoin="round" d="m 6.5,8.5 a 2,2 0 0 1 -2,2 2,2 0 0 1 -2,-2 2,2 0 0 1 2,-2 2,2 0 0 1 2,2 z" class="icn icn--highlight-color"/><path fill="#83beec" stroke="#1e8bcd" stroke-linecap="round" stroke-linejoin="round" d="m 2.5,15.5 4,-2 v 4 z" class="icn icn--highlight-color"/><path fill="#83beec" stroke="#1e8bcd" stroke-linecap="round" stroke-linejoin="round" d="m 6.5,15.5 h 11" class="icn icn--highlight-color"/><path fill="#83beec" stroke="#1e8bcd" stroke-linecap="round" stroke-linejoin="round" d="m 21.5,15.5 a 2,2 0 0 1 -2,2 2,2 0 0 1 -2,-2 2,2 0 0 1 2,-2 2,2 0 0 1 2,2 z" class="icn icn--highlight-color"/></svg>