<svg xmlns="http://www.w3.org/2000/svg" width="68" height="54" viewBox="0 0 63.75 50.625"><path fill="#3a3a38" d="m2.8125 2.8125h57.1875v44.0625h-57.1875z"/><path fill="#fafafa" d="m3.75 3.75h55.3125v42.1875h-55.3125z"/><path fill="#797774" d="m42.1875 6.5624999c.519375 0 .9375.418125.9375.9375v34.6875001c0 .519375-.418125.9375-.9375.9375h-33.75c-.519375 0-.9375-.418125-.9375-.9375l-.0000004-34.6875001c0-.519375.418125-.9375.9375-.9375zm-.9375.9375h-31.8750004c-.519375 0-.9375.418125-.9375.9375l.0000004 32.8125001c0 .519375.418125.9375.9375.9375h31.875c.519375 0 .9375-.418125.9375-.9375v-32.8125001c0-.519375-.418125-.9375-.9375-.9375z"/><rect width="30.938" height="2.813" x="9.375" y="-52.5" fill="#1e8bcd" rx="1.012" ry="0" transform="rotate(90)"/><path fill="#797774" d="m54.375 6.5624999c.519375 0 .9375.418125.9375.9375v34.6875001c0 .519375-.418125.9375-.9375.9375h-6.5625c-.519375 0-.9375-.418125-.9375-.9375v-34.6875001c0-.519375.418125-.9375.9375-.9375zm-.9375.9375h-4.6875c-.519375 0-.9375.418125-.9375.9375v32.8125001c0 .519375.418125.9375.9375.9375h4.6875c.519375 0 .9375-.418125.9375-.9375v-32.8125001c0-.519375-.418125-.9375-.9375-.9375z"/></svg>