<svg xmlns="http://www.w3.org/2000/svg" version="1.1" viewBox="0 0 24 24"><path fill="#fff" d="m2 19v-15h18v15z"/><path fill="#0063b1" d="m2 2c-0.554 0-1 0.446-1 1v16c0 0.554 0.446 1 1 1h18c0.554 0 1-0.446 1-1v-16c0-0.554-0.446-1-1-1zm0 1h18v16h-18z"/><path fill="#0063b1" stroke-width=".707" d="m2 3v1h18v-1z"/><path fill="#0063b1" stroke="#0063b1" stroke-width=".443" d="m3.2217 5.2217v6.5566h7.5566v-6.5566z"/><path fill="#63bbee" stroke-width=".289" d="m12 5v3h7v-3z"/><circle cx="18.008" cy="17.008" r="6.075" fill="#fff" style="paint-order:fill markers stroke"/><path fill="#3a3a38" d="m18 12a5 5 0 0 0-5 5 5 5 0 0 0 5 5 5 5 0 0 0 5-5 5 5 0 0 0-5-5zm0 1a4 4 0 0 1 4 4 4 4 0 0 1-4 4 4 4 0 0 1-4-4 4 4 0 0 1 4-4z"/><path stroke-width=".732" d="m17.471 14.641v3.6607h2.8507v-0.73214h-2.1185v-2.9286z"/><path fill="#3a3a38" stroke-width=".732" d="m21.266 14.535 1.2943-1.2943-0.5177-0.5177-1.2943 1.2943z"/><path fill="#3a3a38" stroke-width=".894" d="m17 11h2v-1l-2 1e-6z"/><path fill="#0063b1" d="m3 14v1h4v-1z"/></svg>