<svg xmlns="http://www.w3.org/2000/svg" xmlns:xlink="http://www.w3.org/1999/xlink" width="24" height="24" viewBox="0 0 6.35 6.35"><linearGradient id="a" x1="5.292" x2="1.058" y1="3.704" y2="3.704" gradientUnits="userSpaceOnUse"><stop offset="0" stop-color="#ed3d3b"/><stop offset="1" stop-color="#ed3d3b" stop-opacity="0"/></linearGradient><path fill="#3a3a38" stroke-width=".265" d="m.79375.52919c-.14657916 0-.26458333.118-.26458333.26458v4.7625c0 .14658.11800417.26458.26458333.26458h4.7625c.1465792 0 .2645834-.118.2645834-.26458v-4.7625c0-.14658-.1180042-.26458-.2645834-.26458zm0 .26458h4.7625v4.7625h-4.7625z"/><path fill="#fafafa" stroke-width=".265" d="m.79375.79377h4.7625v4.7625h-4.7625z"/><path fill="#c8c6c4" d="m1.0583329 3.4395835v.2645833h.2645833v-.2645833zm.2645833.2645833v.2645834h.2645833v-.2645834zm.2645833 0h.2645835v-.2645833h-.2645835zm.2645835 0v.2645834h.2645833v-.2645834zm.2645833 0h.2645834v-.2645833h-.2645834zm.2645834 0v.2645834h.2645833v-.2645834zm.2645833 0h.2645833v-.2645833h-.2645833zm.2645833 0v.2645834h.2645834v-.2645834zm.2645834 0h.2645834v-.2645833h-.2645834zm.2645834 0v.2645834h.2645834v-.2645834zm.2645834 0h.2645833v-.2645833h-.2645833zm.2645833 0v.2645834h.2645833v-.2645834zm.2645833 0h.2645834v-.2645833h-.2645834zm.2645834 0v.2645834h.2645834v-.2645834zm.2645834 0h.2645834v-.2645833h-.2645834zm.2645834 0v.2645834h.2645833v-.2645834z"/><path fill="url(#a)" d="m1.058333 3.439583h4.233334v.529167h-4.233334z"/><path fill="#ed3d3b" d="m1.0583333 3.1750001h4.2333334v-2.1166668h-4.2333334z"/><path fill="#797774" d="m1.058333 4.497917h4.233334v.264583h-4.233334z"/><path fill="#3a3a38" d="m2.1166667 4.2333333h1.0583333v.7937501l-.5291666.5291666-.5291667-.5291666z"/><path fill="#fafafa" d="m2.3812498 4.497917h.5291667l.0000003.396875-.2645834.264583-.2645833-.264583z"/></svg>