<svg xmlns="http://www.w3.org/2000/svg" fill="none" viewBox="0 0 24 24"><path fill="#3A3A38" d="M18 20V21H11V20H18Z"/><path fill="#3A3A38" d="M9 18H8V13H9V18Z"/><path fill="#3A3A38" d="M21 18H20V13H21V18Z"/><path fill="#3A3A38" d="M18 11H11V10H18V11Z"/><rect width="3" height="3" x="7" y="19" fill="#3A3A38" rx=".5"/><rect width="3" height="3" x="7" y="9" fill="#3A3A38" rx=".5"/><rect width="3" height="3" x="19" y="19" fill="#3A3A38" rx=".5"/><rect width="3" height="3" x="19" y="9" fill="#3A3A38" rx=".5"/><path fill="#3A3A38" d="M9 14H6V13H9V14Z"/><path fill="#3A3A38" d="M16 11H15V6H16V11Z"/><path fill="#3A3A38" d="M4 11H3V6H4V11Z"/><path fill="#3A3A38" d="M13 4H6V3H13V4Z"/><rect width="3" height="3" x="2" y="2" fill="#3A3A38" rx=".5"/><rect width="3" height="3" x="2" y="12" fill="#3A3A38" rx=".5"/><rect width="3" height="3" x="14" y="2" fill="#3A3A38" rx=".5"/></svg>