<svg xmlns="http://www.w3.org/2000/svg" viewBox="0 0 24 24"><rect width="20" height="1" x="-22" y="3" fill="#3a3a38" ry=".446" transform="scale(-1 1)"/><path fill="#0063b1" stroke-width=".991" d="m16.793785-5.83363h8.838836v8.838836h-8.838836z" transform="matrix(.70710679 .70710677 -.70710677 .70710679 0 0)"/><g fill="#3a3a38" transform="scale(-1 1)"><rect width="20" height="1" x="-22" y="6" ry=".446"/><rect width="20" height="1" x="-22" y="21" ry=".446"/><rect width="6" height="1" x="-8" y="15" ry=".41"/><rect width="6" height="1" x="-8" y="12" ry=".424"/><rect width="9" height="1" x="-11" y="9" ry=".419"/><rect width="9" height="1" x="-11" y="18" ry=".41"/></g><path fill="#83beec" stroke-width=".753" d="m17.853682-4.773734h6.719044v6.719044h-6.719044z" transform="matrix(.70710679 .70710677 -.70710677 .70710679 0 0)"/></svg>