<svg xmlns="http://www.w3.org/2000/svg" width="60" height="52" viewBox="0 0 60 52"><path fill="#fafafa" d="m0 0h60v52h-60z"/><path fill="none" stroke="#ed8733" stroke-linecap="round" d="m7.5 29.5 14 7 14-20 14 6"/><path fill="none" stroke="#0063b1" stroke-linecap="round" d="m7.5 17.5 14-6 14 30 14-13"/><path fill="#0063b1" d="m34 40h3v3h-3z"/><path fill="#83beec" stroke-width=".333" d="m35 41h1v1h-1z"/><path fill="#0063b1" d="m48 27h3v3h-3z"/><path fill="#83beec" stroke-width=".333" d="m49 28h1v1h-1z"/><path fill="#0063b1" d="m20 10h3v3h-3z"/><path fill="#83beec" stroke-width=".333" d="m21 11h1v1h-1z"/><path fill="#0063b1" d="m6 16h3v3h-3z"/><path fill="#83beec" stroke-width=".333" d="m7 17h1v1h-1z"/><path fill="#ed8733" d="m34 15h3v3h-3z"/><path fill="#f8db8f" stroke-width=".333" d="m35 16h1v1h-1z"/><path fill="#ed8733" d="m48 21h3v3h-3z"/><path fill="#f8db8f" stroke-width=".333" d="m49 22h1v1h-1z"/><path fill="#ed8733" d="m20 35h3v3h-3z"/><path fill="#f8db8f" stroke-width=".333" d="m21 36h1v1h-1z"/><path fill="#ed8733" d="m6 28h3v3h-3z"/><path fill="#f8db8f" stroke-width=".333" d="m7 29h1v1h-1z"/></svg>