<svg xmlns="http://www.w3.org/2000/svg" viewBox="0 0 16 16"><g fill="#3a3a38"><rect width="14" height="1" x="1" y="2" ry=".5"/><rect width="8" height="1" x="1" y="4" ry=".476"/></g><path fill="#1e8bcd" fill-rule="evenodd" d="m4.0001771 10.484375c-.0115041.454318.5402829.686847.8574219.361328l2.1445312-2.1484374-.0019531 6.7773434c-.01795.350177.241511.525391.5.525391s.51795-.175214.5-.525391l-.00195-6.7773434 2.1445309 2.1484374c.317139.325519.868926.09299.857422-.361328-.0041-.130048-.05875-.25337-.152344-.34375l-2.912112-2.9160156c-.160649-.173289-.2664289-.2230094-.4355469-.2246094-.169118.0016-.2748979.0513204-.4355469.2246094l-2.9121093 2.9160156c-.093594.09038-.1482439.213702-.1523438.34375z"/></svg>