<svg xmlns="http://www.w3.org/2000/svg" version="1.1" viewBox="0 0 24 24"><metadata/><path fill="#fafafa" d="m5 3v18h14v-14.271l-4-3.7294z"/><path fill="#3a3a38" d="m5 2c-0.554 0-1 0.446-1 1v18c0 0.554 0.446 1 1 1h14c0.554 0 1-0.446 1-1v-13.959c0-0.45068 0.09887-0.4266-0.60464-1.0676l-3.3074-3.237c-0.70952-0.73686-0.71122-0.73686-1.0948-0.73686h-0.99317zm0 1h9v4c0 0.554 0.446 1 1 1h4v13h-14z"/><path fill="#fafafa" fill-rule="evenodd" d="m15 7h4l-4-4z"/><g fill="#00af73"><path fill-rule="evenodd" d="m11 12.459v3.541l2-2 2 2v-3.541a4 4 0 0 1-2 0.54102 4 4 0 0 1-2-0.54102z" transform="matrix(-1 0 0 1 27.293 4.2511)"/><path d="m13 6a3 3 0 0 0-3 3 3 3 0 0 0 3 3 3 3 0 0 0 3-3 3 3 0 0 0-3-3zm0 2a1 1 0 0 1 1 1 1 1 0 0 1-1 1 1 1 0 0 1-1-1 1 1 0 0 1 1-1z" transform="matrix(-1 0 0 1 27.293 4.2511)"/></g></svg>