<svg xmlns="http://www.w3.org/2000/svg" width="60" height="52" viewBox="0 0 60 52"><path fill="#fafafa" d="m0 0h60v52h-60z"/><path fill="none" stroke="#0063b1" stroke-linecap="round" stroke-linejoin="round" d="m7.5 16.5h14v-7h14v7h14v-3"/><path fill="none" stroke="#ed8733" stroke-linecap="round" stroke-linejoin="round" d="m7.5 41.5h14v-11h14v-5h14"/><path fill="#0063b1" d="m34 15h3v3h-3z"/><path fill="#83beec" stroke-width=".333" d="m35 16h1v1h-1z"/><path fill="#0063b1" d="m48 12h3v3h-3z"/><path fill="#83beec" stroke-width=".333" d="m49 13h1v1h-1z"/><path fill="#0063b1" d="m20 8h3v3h-3z"/><path fill="#83beec" stroke-width=".333" d="m21 9h1v1h-1z"/><path fill="#0063b1" d="m6 15h3v3h-3z"/><path fill="#83beec" stroke-width=".333" d="m7 16h1v1h-1z"/><path fill="#ed8733" d="m34 24h3v3h-3z"/><path fill="#f8db8f" stroke-width=".333" d="m35 25h1v1h-1z"/><path fill="#ed8733" d="m48 24h3v3h-3z"/><path fill="#f8db8f" stroke-width=".333" d="m49 25h1v1h-1z"/><path fill="#ed8733" d="m20 29h3v3h-3z"/><path fill="#f8db8f" stroke-width=".333" d="m21 30h1v1h-1z"/><path fill="#ed8733" d="m6 40h3v3h-3z"/><path fill="#f8db8f" stroke-width=".333" d="m7 41h1v1h-1z"/></svg>