<svg xmlns="http://www.w3.org/2000/svg" width="60" height="52" viewBox="0 0 60 52"><path fill="#fafafa" d="m0 0h60v52h-60z"/><g fill="#0063b1"><path stroke-width=".7" d="m9 28h7v17h-7z"/><path stroke-width=".882" d="m20 20h7v25h-7z"/><path stroke-width=".644" d="m31 29h7v16h-7z"/><path stroke-width=".923" d="m42 22h7v23h-7z"/></g><g fill="#3a3a38"><path d="m3 45h52v1h-52z"/><path stroke-width=".933" d="m5 6h1v40h-1z"/><path stroke-width=".447" d="m13 22h3v1h-3z"/></g><path fill="#83beec" stroke-width=".574" d="m10 29h5v16h-5z"/><g fill="#3a3a38"><path stroke-width="1.202" d="m12 18h1v13h-1z"/><path d="m3 6h2v1h-2z"/><path d="m3 25h2v1h-2z"/></g><path fill="#83beec" stroke-width=".73" d="m21 21h5v24h-5z"/><path fill="#3a3a38" stroke-width=".447" d="m24 15h3v1h-3z"/><path fill="#3a3a38" stroke-width="1.202" d="m23 10h1v13h-1z"/><path fill="#83beec" stroke-width=".527" d="m32 30h5v15h-5z"/><path fill="#3a3a38" stroke-width=".447" d="m35 24h3v1h-3z"/><path fill="#3a3a38" stroke-width="1.202" d="m34 22h1v13h-1z"/><path fill="#83beec" stroke-width=".763" d="m43 23h5v22h-5z"/><g fill="#3a3a38"><path stroke-width=".507" d="m46 19h3v1h-3z"/><path stroke-width="1.255" d="m45 13h1v12h-1z"/><path stroke-width=".933" d="m53 6h-1v40h1z"/><path d="m55 6h-2v1h2z"/><path d="m55 9h-2v1h2z"/><path d="m55 11.5h-2v1h2z"/><path d="m55 14.5h-2v1h2z"/><path d="m55 18h-2v1h2z"/><path d="m55 21h-2v1h2z"/><path d="m55 23.5h-2v1h2z"/><path d="m55 26.5h-2v1h2z"/><path d="m55 30h-2v1h2z"/><path d="m55 33h-2v1h2z"/><path d="m55 35.5h-2v1h2z"/><path d="m55 38.5h-2v1h2z"/><path d="m55 42h-2v1h2z"/></g></svg>