<svg xmlns="http://www.w3.org/2000/svg" width="60" height="52" viewBox="0 0 60 52"><path fill="#fafafa" d="m0 0h60v52h-60z"/><g fill="#3a3a38"><path stroke-width=".951" d="m6 45h47v1h-47z"/><path stroke-width=".933" d="m5 6h1v40h-1z"/><path stroke-width=".345" d="m22 27h2v.894068h-2z"/><path stroke-width="1.202" d="m21 21h1v13h-1z"/><path stroke-width=".365" d="m28 13h2v1h-2z"/><path stroke-width="1.155" d="m27 8h1v12h-1z"/><path stroke-width=".365" d="m40 30h2v1h-2z"/><path stroke-width="1.202" d="m39 26h1v13h-1z"/><path stroke-width=".414" d="m52 12h2v1h-2z"/><path stroke-width="1.255" d="m51 6h1v12h-1z"/><path stroke-width=".414" d="m46 20h2v1h-2z"/><path stroke-width="1.202" d="m45 13h1v11h-1z"/><path stroke-width=".365" d="m34 23h2v1h-2z"/><path stroke-width="1.155" d="m33 18h1v12h-1z"/><path stroke-width=".345" d="m16 23h2v.894068h-2z"/><path stroke-width="1.106" d="m15 19h1v11h-1z"/><path stroke-width=".345" d="m10 34h2v.894068h-2z"/><path stroke-width="1.054" d="m9 30h1v10h-1z"/></g></svg>