<svg xmlns="http://www.w3.org/2000/svg" width="60" height="52" viewBox="0 0 60 52"><path fill="#fafafa" d="m0 0h60v52h-60z"/><g fill="#3a3a38"><path stroke-width=".951" d="m6 45h47v1h-47z"/><path stroke-width=".933" d="m5 6h1v40h-1z"/><path stroke-width="1.247" d="m21 20h1v14h-1z"/><path stroke-width="1.333" d="m27 6h1v16h-1z"/><path stroke-width="1.633" d="m37 28h5v8h-5z"/><path stroke-width="1.333" d="m39 25h1v16h-1z"/><path stroke-width="1.852" d="m49 10h5v8h-5z"/><path stroke-width="1.449" d="m51 4h1v16h-1z"/><path stroke-width=".414" d="m45 20h2v1h-2z"/><path stroke-width="1.403" d="m45 12h1v15h-1z"/><path stroke-width="1.633" d="m31 20h5v8h-5z"/><path stroke-width="1.291" d="m33 16h1v15h-1z"/><path stroke-width="1.247" d="m15 18h1v14h-1z"/><path stroke-width="1.202" d="m9 28h1v13h-1z"/></g><path fill="#fafafa" stroke-width="1.242" d="m50 11h3v6h-3z"/><path fill="#797774" stroke-width="1.732" d="m43 15h5v7h-5z"/><path fill="#fafafa" stroke-width="1.095" d="m38 29h3v6h-3z"/><path fill="#3a3a38" stroke-width="1.134" d="m44 16h3v5h-3z"/><path fill="#fafafa" stroke-width="1.095" d="m32 21h3v6h-3z"/><path fill="#797774" stroke-width="1.528" d="m25 10h5v7h-5z"/><path fill="#3a3a38" d="m26 11h3v5h-3z"/><path fill="#3a3a38" stroke-width="1.622" d="m19 23.105932h5v7.894068h-5z"/><path fill="#fafafa" stroke-width="1.095" d="m20 24h3v6h-3z"/><path fill="#797774" stroke-width="1.528" d="m13 21h5v7h-5z"/><path fill="#3a3a38" d="m14 22h3v5h-3z"/><path fill="#797774" stroke-width="1.528" d="m7 30h5v7h-5z"/><path fill="#3a3a38" d="m8 31h3v5h-3z"/></svg>