<svg xmlns="http://www.w3.org/2000/svg" width="60" height="52" viewBox="0 0 60 52"><path fill="#fafafa" d="m0 0h60v52h-60z"/><path fill="none" stroke="#ed8733" stroke-linecap="round" stroke-linejoin="round" d="m52.5 31.5s-10.749086 2.372081-16 4c-7.827236 2.426645-29.0443759 2.982539-31-15-.7264985-6.680368 7.412968-10.342874 9-9"/><path fill="none" stroke="#0063b1" stroke-linecap="round" stroke-linejoin="round" d="m9.5 42.5c-1.0364341-2.218715-4.14245-29.05697 17-35 8.61056-2.4203828 20.216985 3.895138 24 12 3.043441 6.520372-5 21-5 21"/><path fill="#0063b1" d="m25 6h3v3h-3z"/><path fill="#83beec" stroke-width=".333" d="m26 7h1v1h-1z"/><path fill="#0063b1" d="m49 18h3v3h-3z"/><path fill="#83beec" stroke-width=".333" d="m50 19h1v1h-1z"/><path fill="#0063b1" d="m8 41h3v3h-3z"/><path fill="#83beec" stroke-width=".333" d="m9 42h1v1h-1z"/><path fill="#ed8733" d="m35 34h3v3h-3z"/><path fill="#f8db8f" stroke-width=".333" d="m36 35h1v1h-1z"/><path fill="#ed8733" d="m51 30h3v3h-3z"/><path fill="#f8db8f" stroke-width=".333" d="m52 31h1v1h-1z"/><path fill="#ed8733" d="m4 19h3v3h-3z"/><path fill="#f8db8f" stroke-width=".333" d="m5 20h1v1h-1z"/><path fill="#ed8733" d="m13 10h3v3h-3z"/><path fill="#f8db8f" stroke-width=".333" d="m14 11h1v1h-1z"/><path fill="#0063b1" d="m44 39h3v3h-3z"/><path fill="#83beec" stroke-width=".333" d="m45 40h1v1h-1z"/></svg>