<svg xmlns="http://www.w3.org/2000/svg" width="60" height="52" viewBox="0 0 60 52"><path fill="#fafafa" d="m0 0h60v52h-60z"/><path fill="none" stroke="#0063b1" stroke-linecap="round" stroke-linejoin="round" d="m9.5 42.5 17-35 24 12-5 21"/><path fill="none" stroke="#ed8733" stroke-linecap="round" stroke-linejoin="round" d="m52.5 31.5-16 4-31-15 9-9"/><path fill="#0063b1" d="m25 6h3v3h-3z"/><path fill="#83beec" stroke-width=".333" d="m26 7h1v1h-1z"/><path fill="#0063b1" d="m49 18h3v3h-3z"/><path fill="#83beec" stroke-width=".333" d="m50 19h1v1h-1z"/><path fill="#0063b1" d="m8 41h3v3h-3z"/><path fill="#83beec" stroke-width=".333" d="m9 42h1v1h-1z"/><path fill="#ed8733" d="m35 34h3v3h-3z"/><path fill="#f8db8f" stroke-width=".333" d="m36 35h1v1h-1z"/><path fill="#ed8733" d="m51 30h3v3h-3z"/><path fill="#f8db8f" stroke-width=".333" d="m52 31h1v1h-1z"/><path fill="#ed8733" d="m4 19h3v3h-3z"/><path fill="#f8db8f" stroke-width=".333" d="m5 20h1v1h-1z"/><path fill="#ed8733" d="m13 10h3v3h-3z"/><path fill="#f8db8f" stroke-width=".333" d="m14 11h1v1h-1z"/><path fill="#0063b1" d="m44 39h3v3h-3z"/><path fill="#83beec" stroke-width=".333" d="m45 40h1v1h-1z"/></svg>