<svg xmlns="http://www.w3.org/2000/svg" xmlns:xlink="http://www.w3.org/1999/xlink" viewBox="0 0 16 16"><linearGradient id="a" x1="15" x2="3" y1="16" y2="0" gradientUnits="userSpaceOnUse" xlink:href="#b"/><linearGradient id="b"><stop offset="0" stop-color="#a33e03"/><stop offset="1" stop-color="#d36118"/></linearGradient><linearGradient id="c" x1="124" x2="112" y1="992.375" y2="976.369" gradientTransform="matrix(.999981 0 0 .999625 -109.99781 -976.00286)" gradientUnits="userSpaceOnUse" xlink:href="#b"/><path fill="url(#c)" d="m1.8125.00586c-.458392.0875-.82072.53358-.8125 1v13.99414c.00005.52339.47643.99995 1 1h12c .52357-.00005.99995-.47661 1-1v-7.99609c.006-.26396-.0975-.52904-.28125-.71875l-5-5.99805c-.189776-.18363-.454695-.28737-.71875-.28125h-7c-.0623-.006-.125182-.006-.1875 0zm9.53125 0c-.331493.10559-.443055.60775-.1875.84375l3 2.99805c.277145.26269.82915.0378.84375-.34375v-2.99805c-.00003-.26169-.238215-.49997-.5-.5h-3c-.0517-.008-.104591-.008-.15625 0z"/><path fill="#fff" d="m2 1v14h12v-8l-5-6z"/><path fill="url(#a)" d="m4.03125 7v .46875c-.0119 1.9999-.01965 3.9999-.03125 6v .53125h.5 7 .5v-.5c-.00006-1.9921 0-4.0081 0-6v-.5h-.5c-2.32275-.012-4.64771.01-6.96875 0zm1 1c1.98885.01 3.98117-.01 5.96875 0 0 1.6599-.00004 3.3399 0 5h-6c .01-1.6668.02145-3.3334.03125-5zm .96875.98828v1h1v-1zm2 0v1h2v-1zm-2 2v1h1v-1zm2 0v1h2v-1z"/></svg>