<svg xmlns="http://www.w3.org/2000/svg" xmlns:xlink="http://www.w3.org/1999/xlink" viewBox="0 0 16 16"><linearGradient id="a" x1="13.001" x2="1.001" y1="16" y2="0" gradientUnits="userSpaceOnUse" xlink:href="#b"/><linearGradient id="b"><stop offset="0" stop-color="#18a303"/><stop offset="1" stop-color="#43c330"/></linearGradient><linearGradient id="c" x1="124" x2="112" y1="992.375" y2="976.369" gradientTransform="matrix(.999981 0 0 .999625 -109.99781 -976.00286)" gradientUnits="userSpaceOnUse" xlink:href="#b"/><path fill="url(#c)" d="m1.8125.00586c-.458392.0875-.82072.53358-.8125 1v13.99414c.00005.52339.47643.99995 1 1h12c .52357-.00005.99995-.47661 1-1v-7.99609c.006-.26396-.0975-.52904-.28125-.71875l-5-5.99805c-.189776-.18363-.454695-.28737-.71875-.28125h-7c-.0623-.006-.125182-.006-.1875 0zm9.53125 0c-.331493.10559-.443055.60775-.1875.84375l3 2.99805c.277145.26269.82915.0378.84375-.34375v-2.99805c-.00003-.26169-.238215-.49997-.5-.5h-3c-.0517-.008-.104591-.008-.15625 0z"/><path fill="#fff" d="m2 1v14h12v-8l-5-6z"/><path fill="url(#a)" d="m4 5.998v7h8.000977v-7zm1.0000001 1h1.9999999v1h-1.9999999zm2.9999999 0h3.000977v1h-3.000977zm-2.9999999 2h1.9999999v1h-1.9999999zm2.9999999 0h3.000977v1h-3.000977zm-2.9999999 2h1.9999999v1h-1.9999999zm2.9999999 0h3.000977v1h-3.000977z"/></svg>