<svg xmlns="http://www.w3.org/2000/svg" viewBox="0 0 24 24"><path fill="#fafafa" d="m5 2c-.554 0-1 .446-1 1v18c0 .554.446 1 1 1h14c.554 0 1-.446 1-1v-10.109375-3.640625-.2089844c0-.4506799.098038-.4254121-.605469-1.0664062l-3.30664-3.2382813c-.709525-.7368575-.710169-.7363281-1.09375-.7363281h-.332032-.662109zm0 1h9v4c0 .554.446 1 1 1h4v13h-14zm10 0 4 4h-4z"/><g fill="#1e8bcd"><rect width="7" height="2" x="6" y="5" ry="1"/><rect width="8" height="1" x="6" y="9" ry=".491"/><rect width="2" height="1" x="16" y="9" ry=".473"/><rect width="8" height="1" x="6" y="12" ry=".491"/><rect width="2" height="1" x="16" y="12" ry=".473"/><rect width="8" height="1" x="6" y="15" ry=".491"/><rect width="2" height="1" x="16" y="15" ry=".473"/><rect width="8" height="1" x="6" y="18" ry=".491"/><rect width="2" height="1" x="16" y="18" ry=".473"/></g></svg>