<svg xmlns="http://www.w3.org/2000/svg" viewBox="0 0 24 24"><path fill="#fafafa" d="m5 2c-.554 0-1 .446-1 1v18c0 .554.446 1 1 1h7.042969a.99955814.99955814 0 0 1 .25-.421875l.578125-.578125h-7.871094v-18h9v4c0 .554.446 1 1 1h4v6.871094l1-1v-2.980469-3.640625-.2089844c0-.4506799.098038-.4254121-.605469-1.0664062l-3.30664-3.2382813c-.709525-.7368575-.710169-.7363281-1.09375-.7363281h-.332032-.662109zm10 1 4 4h-4zm2.128906 18-1 1h2.871094c.243451 0 .457803-.096663.630859-.240234l-.759765-.759766z"/><rect width="5" height="1" x="7" y="5" fill="#c8c6c4" ry=".5"/><rect width="3" height="1" x="7" y="9" fill="#c8c6c4" ry=".5"/><rect width="5" height="1" x="12" y="9" fill="#fb983b" ry=".5"/><path fill="#fb983b" d="m7.5 12c-.277 0-.5.223-.5.5s.223.5.5.5h4.800781l.707031-.707031a.99955814.99955814 0 0 1 .554688-.28125c-.021333-.002755-.040393-.011719-.0625-.011719z"/><rect width="4" height="1" x="7" y="15" fill="#c8c6c4" ry=".5"/><path fill="#c8c6c4" d="m12.474609 15c-.262915 0-.474609.211694-.474609.474609v.050782c0 .262917.211694.474609.474609.474609h1.050782c.06573 0 .128731-.013159.185547-.037109 0 0 .001953-.001953.001953-.001953l.060547-.058594-.902344-.902344z"/><rect width="5" height="1" x="7" y="18" fill="#fb983b" ry=".4"/><path fill="#ed3d3b" d="m22.285683 12.999968-4.285715 4.285714-4.285715-4.285714-.714285.714285 4.285714 4.285715-4.285714 4.285715.714285.714285 4.285715-4.285714 4.285715 4.285714.714285-.714285-4.285714-4.285715 4.285714-4.285715z"/></svg>