<svg xmlns="http://www.w3.org/2000/svg" viewBox="0 0 24 24"><path fill="#c8c6c4" d="m7 2v4h-4v1h4v4h-4v1h4v4h-4v1h4v4h1v-4h4v4h1v-4h4v4h1v-4h4v-1h-4v-4h4v-1h-4v-4h4v-1h-4v-4h-1v4h-4v-4h-1v4h-4v-4zm1 5h4v4h-4zm5 0h4v4h-4zm-5 5h4v4h-4zm5 0h4v4h-4z"/><path fill="#fafafa" d="m3 1c-.554 0-1 .446-1 1v19c0 .554.446 1 1 1h19c.554 0 1-.446 1-1v-19c0-.554-.446-1-1-1zm0 1h19v19h-19z"/><path fill="#ed8733" stroke-width="1.225" d="m22 7v4h-19v-4z" opacity=".5"/><path fill="#f8db8f" d="m23 6h-21v1 4 1h21v-1-4zm-1 1v4h-4v-4zm-5 0v4h-4v-4zm-5 0v4h-4v-4zm-5 0v4h-4v-4z"/></svg>