<svg xmlns="http://www.w3.org/2000/svg" version="1.1" viewBox="0 0 24 24"><defs><filter id="filter25613" width="1.111" height="1.111" x="-.056" y="-.056" color-interpolation-filters="sRGB"><feGaussianBlur stdDeviation=".5"/></filter></defs><g><path fill="#fafafa" stroke-width="0" d="m3.1995 5.0394c-1.1967 0-2.1601 0.9634-2.1601 2.1601v21.601c0 1.1967 0.9634 2.1601 2.1601 2.1601h21.601c1.1967 0 2.1601-0.9634 2.1601-2.1601v-21.601c0-1.1967-0.9634-2.1601-2.1601-2.1601zm0 2.1601h21.601v21.601h-21.601z" transform="matrix(.71429 0 0 .71429 2 -.85714)"/><path fill="#1e8bcd" stroke-width="2.8" d="m3.1995 7.1995v21.601h21.601v-21.601zm2.1601 2.1601h17.281v17.281h-17.281z" filter="url(#filter25613)" transform="matrix(.71429 0 0 .71429 2 -.85714) matrix(1.0103 0 0 1.0103 -.1439 -.18501)" style="mix-blend-mode:normal"/></g></svg>