<svg xmlns="http://www.w3.org/2000/svg" viewBox="0 0 24 24"><path style="fill:#fafafa" id="path4" d="m3 2c-.554 0-1 .446-1 1v9 9c0 .554.446 1 1 1h6 1.212891l.246093-1h-1.458984-6v-9-6h18v4.101562c.238971.084586.464993.217195.654297.40625l.345703.345704v-7.853516c0-.554-.446-1-1-1zm19 14.234375-.236328.226563c-.050768.047982-.106406.090533-.166016.126953l-.597656.599609v3.8125h-3.794922l-.996094 1h4.791016c.554 0 1-.446 1-1z"/><path id="path6" fill="#797774" d="m8 3v6h-5v1h5v3h-5v1h5v3h-5v1h5v3h1v-3h2.664062l.333985-.333984.671875-.666016h-3.669922v-3h6v.679688l1.685547-1.679688h-.685547v-3h4.380859c.013035-.0003051.026045-.0039062.039063-.0039062.013019 0 .026029.0036063.039062.0039062h.541016v-1h-5v-6h-1v6h-6v-6zm1 7h6v3h-6zm12 7.1875-.808594.8125h.808594z"/><path id="path8" fill="#83beec" d="m2 2h20v4h-20z"/><path id="path10" fill="#0063b1" d="m3 3h18v2h-18z"/><g id="g16" fill="#0063b1" stroke-linecap="round" stroke-linejoin="round"><path id="path4-3" fill="#83beec" d="m 19.492188,10 a 0.50005,0.50005 0 0 0 -0.345704,0.146484 l -2,2 a 0.50005,0.50005 0 0 0 0,0.707032 l 3,3 a 0.50005,0.50005 0 0 0 0.707032,0 l 2,-2 a 0.50005,0.50005 0 0 0 0,-0.707032 l -3,-3 A 0.50005,0.50005 0 0 0 19.492188,10 Z"/><path id="path6-6" d="M 19.5,11 18,12.5 20.5,15 22,13.5 Z"/><path id="path8-7" fill="#83beec" d="m 17.387227,12.099771 c -0.128383,0.0019 -0.250968,0.05378 -0.341797,0.144532 l -4.895039,4.906088 c -0.193221,0.193027 -0.193221,0.506191 0,0.699218 l 3,3 c 0.193027,0.193221 0.506191,0.193221 0.699218,0 l 4.895039,-4.906088 c 0.193221,-0.193026 0.193221,-0.506191 0,-0.699218 l -3,-3 c -0.09466,-0.09458 -0.223626,-0.146733 -0.357421,-0.144532 z"/><path id="path10-5" fill="#0063b1" d="M 17.395039,13.027506 12.933594,17.5 15.5,20.066406 19.961445,15.593912 Z"/><path id="path12" fill="#83beec" d="m 12.359605,17.137159 c -0.195084,0.0034 -0.369096,0.123468 -0.441407,0.304687 l -1.867417,4.878466 c -0.1570528,0.39476 0.234147,0.78596 0.628907,0.628907 l 4.867417,-1.878466 c 0.321733,-0.129523 0.406958,-0.545379 0.162109,-0.791016 l -3,-3 c -0.09244,-0.09287 -0.21858,-0.144316 -0.349609,-0.142578 z"/><path id="path14" fill="#0063b1" d="M 12.451401,18.025831 10.908203,22.091797 14.96312,20.53755 Z"/></g></svg>