<svg xmlns="http://www.w3.org/2000/svg" width="900" height="600" version="1.1" viewBox="0 0 238.12 158.75"><defs><filter id="filter14" width="1.053" height="1.085" x="-.027" y="-.043" color-interpolation-filters="sRGB"><feGaussianBlur stdDeviation="2.178"/></filter></defs><rect width="211.67" height="132.29" x="13.229" y="13.229" fill="#f9f9f9" stroke="#fff" stroke-width=".794" display="none" rx="1.587" ry="1.587" style="paint-order:fill markers stroke"/><rect width="177.2" height="28.343" x="55.499" y="4.878" fill="#e8e8e8" display="none" rx="1.587" ry="1.587" style="paint-order:fill markers stroke"/><rect width="211.67" height="132.29" x="13.229" y="13.229" fill="#989898" stroke="#fff" stroke-width=".794" filter="url(#filter14)" rx="1.587" ry="1.587" style="paint-order:fill markers stroke"/><g><path fill="#e9e9e9" d="m14.817 13.229h208.49c0.87947 0 1.5875 0.70802 1.5875 1.5875v129.12c0 0.87947-0.70803 1.5875-1.5875 1.5875h-208.49c-0.87948 0-1.5875-0.70803-1.5875-1.5875v-129.12c0-0.87948 0.70802-1.5875 1.5875-1.5875z" stop-color="#000" style="paint-order:fill markers stroke"/><path fill="#fff" d="m14.816 12.832c-1.0925 0-1.9844 0.8919-1.9844 1.9844v129.12c0 1.0925 0.8919 1.9844 1.9844 1.9844h208.49c1.0925 0 1.9844-0.8919 1.9844-1.9844v-129.12c0-1.0925-0.8919-1.9844-1.9844-1.9844zm0 0.79492h208.49c0.66647 0 1.1895 0.52298 1.1895 1.1895v129.12c0 0.66647-0.52299 1.1895-1.1895 1.1895h-208.49c-0.66647 0-1.1895-0.52299-1.1895-1.1895v-129.12c0-0.66647 0.52298-1.1895 1.1895-1.1895z" stop-color="#000" style="paint-order:fill markers stroke"/></g><path fill="#f2f2f2" stroke="#fff" stroke-width=".794" d="m14.817 33.222c-0.87948 0-1.5875 0.70802-1.5875 1.5875v109.12c0 0.87947 0.70802 1.5875 1.5875 1.5875h208.49c0.87947 0 1.5875-0.70803 1.5875-1.5875v-110.71z" style="paint-order:fill markers stroke"/><g><path fill="#f9f9f9" d="m32.411 45.566h173.3v98.16h-173.3z" stop-color="#000" transform="translate(0 1.7942)" style="paint-order:fill markers stroke"/><path fill="#e6e6e6" d="m206.11 144.12v-98.953h-174.1v98.953m0.79492-98.16h172.51v98.16h-172.51z" stop-color="#000" transform="translate(0 1.7942)" style="paint-order:fill markers stroke"/></g><g transform="translate(0 1.7942)"><rect width="210.87" height="6.615" x="13.629" y="11.833" fill="#0369a2" rx="1.058" ry="1.058" style="paint-order:fill markers stroke"/><rect width="210.87" height="8.467" x="13.629" y="17.389" fill="#f9f9f9" style="paint-order:fill markers stroke"/><rect width="4.763" height="4.763" x="19.979" y="19.241" fill="#ccc" rx=".794" ry=".794" style="paint-order:fill markers stroke"/><rect width="12.7" height="1.587" x="19.979" y="13.817" fill="#f2f2f2" style="paint-order:fill markers stroke"/><rect width="6.35" height="1.587" x="36.473" y="13.817" fill="#f2f2f2" style="paint-order:fill markers stroke"/><rect width="8.467" height="1.587" x="58.879" y="13.817" fill="#f2f2f2" style="paint-order:fill markers stroke"/><rect width="8.467" height="1.587" x="81.285" y="13.817" fill="#f2f2f2" style="paint-order:fill markers stroke"/><rect width="6.35" height="1.587" x="71.141" y="13.817" fill="#f2f2f2" style="paint-order:fill markers stroke"/><rect width="8.467" height="1.587" x="93.547" y="13.817" fill="#f2f2f2" style="paint-order:fill markers stroke"/><rect width="8.467" height="1.587" x="46.618" y="13.817" fill="#f2f2f2" style="paint-order:fill markers stroke"/><rect width="6.35" height="1.587" x="105.81" y="13.817" fill="#f2f2f2" style="paint-order:fill markers stroke"/><rect width="6.35" height="1.587" x="115.95" y="13.817" fill="#f2f2f2" style="paint-order:fill markers stroke"/><rect width="4.763" height="4.763" x="26.859" y="19.241" fill="#ccc" rx=".794" ry=".794" style="paint-order:fill markers stroke"/><rect width="4.763" height="4.763" x="33.738" y="19.241" fill="#ccc" rx=".794" ry=".794" style="paint-order:fill markers stroke"/><rect width="4.763" height="4.763" x="40.618" y="19.241" fill="#ccc" rx=".794" ry=".794" style="paint-order:fill markers stroke"/><rect width="4.763" height="4.763" x="47.498" y="19.241" fill="#ccc" rx=".794" ry=".794" style="paint-order:fill markers stroke"/><rect width="4.763" height="4.763" x="54.377" y="19.241" fill="#ccc" rx=".794" ry=".794" style="paint-order:fill markers stroke"/><rect width="14.288" height="4.763" x="61.257" y="19.241" fill="#ccc" rx=".794" ry=".794" style="paint-order:fill markers stroke"/><rect width="23.813" height="4.763" x="77.662" y="19.241" fill="#ccc" rx=".794" ry=".794" style="paint-order:fill markers stroke"/><rect width="10.318" height="4.763" x="103.59" y="19.241" fill="#ccc" rx=".794" ry=".794" style="paint-order:fill markers stroke"/><rect width="4.763" height="4.763" x="116.03" y="19.241" fill="#ccc" rx=".794" ry=".794" style="paint-order:fill markers stroke"/><rect width="4.763" height="4.763" x="122.91" y="19.241" fill="#ccc" rx=".794" ry=".794" style="paint-order:fill markers stroke"/><rect width="4.763" height="4.763" x="129.79" y="19.241" fill="#ccc" rx=".794" ry=".794" style="paint-order:fill markers stroke"/><rect width="4.763" height="4.763" x="136.67" y="19.241" fill="#ccc" rx=".794" ry=".794" style="paint-order:fill markers stroke"/><rect width="4.763" height="4.763" x="143.54" y="19.241" fill="#ccc" rx=".794" ry=".794" style="paint-order:fill markers stroke"/><rect width="4.763" height="4.763" x="150.42" y="19.241" fill="#ccc" rx=".794" ry=".794" style="paint-order:fill markers stroke"/><rect width="4.763" height="4.763" x="157.3" y="19.241" fill="#ccc" rx=".794" ry=".794" style="paint-order:fill markers stroke"/><rect width="4.763" height="4.763" x="164.18" y="19.241" fill="#ccc" rx=".794" ry=".794" style="paint-order:fill markers stroke"/><rect width="4.763" height="4.763" x="171.06" y="19.241" fill="#ccc" rx=".794" ry=".794" style="paint-order:fill markers stroke"/><rect width="4.763" height="4.763" x="177.94" y="19.241" fill="#ccc" rx=".794" ry=".794" style="paint-order:fill markers stroke"/><rect width="4.763" height="4.763" x="214.97" y="19.241" fill="#ccc" rx=".794" ry=".794" style="paint-order:fill markers stroke"/></g><rect width="47.146" height="34.424" x="48.12" y="61.78" fill="#f2f2f2" stroke="#e6e6e6" stroke-width=".794" style="paint-order:fill markers stroke"/><rect width="78.846" height="3.704" x="101.26" y="61.383" fill="#e6e6e6" style="paint-order:fill markers stroke"/><rect width="65.295" height="2.646" x="101.26" y="69.321" fill="#e6e6e6" style="paint-order:fill markers stroke"/><rect width="53.975" height="2.646" x="101.26" y="74.613" fill="#e6e6e6" style="paint-order:fill markers stroke"/><rect width="62.649" height="2.646" x="101.26" y="79.904" fill="#e6e6e6" style="paint-order:fill markers stroke"/><rect width="57.622" height="2.646" x="101.26" y="85.196" fill="#e6e6e6" style="paint-order:fill markers stroke"/><rect width="69.85" height="2.646" x="47.723" y="104.77" fill="#e6e6e6" style="paint-order:fill markers stroke"/><rect width="69.85" height="2.646" x="47.723" y="110.07" fill="#e6e6e6" style="paint-order:fill markers stroke"/><rect width="69.85" height="2.646" x="47.723" y="115.36" fill="#e6e6e6" style="paint-order:fill markers stroke"/><rect width="69.85" height="2.646" x="47.723" y="120.65" fill="#e6e6e6" style="paint-order:fill markers stroke"/><rect width="69.85" height="2.646" x="120.55" y="104.77" fill="#e6e6e6" style="paint-order:fill markers stroke"/><rect width="69.85" height="2.646" x="120.55" y="110.07" fill="#e6e6e6" style="paint-order:fill markers stroke"/><rect width="69.85" height="2.646" x="120.55" y="115.36" fill="#e6e6e6" style="paint-order:fill markers stroke"/><rect width="69.85" height="2.646" x="120.55" y="120.65" fill="#e6e6e6" style="paint-order:fill markers stroke"/><rect width="69.85" height="2.646" x="47.723" y="125.94" fill="#e6e6e6" style="paint-order:fill markers stroke"/><rect width="69.85" height="2.646" x="47.723" y="131.23" fill="#e6e6e6" style="paint-order:fill markers stroke"/><rect width="69.85" height="2.646" x="47.723" y="136.52" fill="#e6e6e6" style="paint-order:fill markers stroke"/><rect width="59.267" height="2.646" x="120.55" y="125.94" fill="#e6e6e6" style="paint-order:fill markers stroke"/></svg>