<svg xmlns="http://www.w3.org/2000/svg" width="900" height="600" version="1.1" viewBox="0 0 238.12 158.75"><defs><filter id="filter14" width="1.053" height="1.085" x="-.027" y="-.043" color-interpolation-filters="sRGB"><feGaussianBlur stdDeviation="2.178"/></filter></defs><rect width="211.67" height="132.29" x="13.229" y="13.229" fill="#989898" stroke="#fff" stroke-width=".794" filter="url(#filter14)" rx="1.587" ry="1.587" style="paint-order:fill markers stroke"/><rect width="211.67" height="132.29" x="13.229" y="13.229" fill="#f2f2f2" stroke="#fff" stroke-width=".794" rx="1.587" ry="1.587" style="paint-order:fill markers stroke"/><path fill="#f9f9f9" stroke="#fff" stroke-width=".794" d="m14.817 13.229h208.49c0.87947 0 1.5875 0.70802 1.5875 1.5875v129.12c0 0.87947-0.70803 1.5875-1.5875 1.5875h-208.49c-0.87948 0-1.5875-0.70803-1.5875-1.5875v-129.12c0-0.87948 0.70802-1.5875 1.5875-1.5875z" style="paint-order:fill markers stroke"/><g transform="translate(0 1.7942)"><rect width="211.67" height="28.575" x="13.229" y="14.49" fill="#f2f2f2" style="paint-order:fill markers stroke"/><path fill="#0369a2" stroke-width="2.519" d="m14.817 13.229c-0.87948 0-1.5875 0.70802-1.5875 1.5875v14.245c0 0.87948 0.70802 1.5875 1.5875 1.5875h41.385v-10.786c0-0.87948 0.70802-1.5875 1.5875-1.5875h37.042c0.87948 0 1.5875 0.70802 1.5875 1.5875v10.786h126.89c0.87947 0 1.5875-0.70802 1.5875-1.5875v-14.245c0-0.87948-0.70803-1.5875-1.5875-1.5875z" transform="translate(0 -1.7942)" style="paint-order:fill markers stroke"/><rect width="25.929" height="3.175" x="20.079" y="21.489" fill="#f2f2f2" style="paint-order:fill markers stroke"/><rect width="25.929" height="3.175" x="63.346" y="21.489" fill="#0369a2" style="paint-order:fill markers stroke"/><rect width="25.929" height="3.175" x="106.61" y="21.489" fill="#f2f2f2" style="paint-order:fill markers stroke"/><rect width="25.929" height="3.175" x="149.88" y="21.489" fill="#f2f2f2" style="paint-order:fill markers stroke"/><rect width="25.929" height="3.175" x="193.15" y="21.489" fill="#f2f2f2" style="paint-order:fill markers stroke"/><g><path fill="#f9f9f9" d="m32.411 45.566h173.3v98.16h-173.3z" stop-color="#000" style="paint-order:fill markers stroke"/><path fill="#e6e6e6" d="m206.11 144.12v-94.708h-174.1v94.708m0.79492-93.915h172.51v93.915h-172.51z" stop-color="#000" style="paint-order:fill markers stroke"/></g><rect width="211.67" height=".265" x="13.229" y="42.801" fill="#e6e6e6" style="paint-order:fill markers stroke"/></g><g fill="#ccc" transform="translate(55.533 -44.663)"><rect width="3.175" height="3.175" x="-34.66" y="77.881" rx=".794" ry=".794" style="paint-order:fill markers stroke"/><rect width="3.175" height="3.175" x="-18.785" y="77.881" rx=".794" ry=".794" style="paint-order:fill markers stroke"/><rect width="3.175" height="3.175" x="15.61" y="77.881" rx=".794" ry=".794" style="paint-order:fill markers stroke"/><rect width="3.175" height="3.175" x="20.902" y="77.881" rx=".794" ry=".794" style="paint-order:fill markers stroke"/><rect width="3.175" height="3.175" x="26.194" y="77.881" rx=".794" ry=".794" style="paint-order:fill markers stroke"/><rect width="3.175" height="3.175" x="31.485" y="77.881" rx=".794" ry=".794" style="paint-order:fill markers stroke"/><rect width="6.35" height="6.35" x="-28.31" y="78.94" rx=".794" ry=".794" style="paint-order:fill markers stroke"/><rect width="3.175" height="3.175" x="36.777" y="77.881" rx=".794" ry=".794" style="paint-order:fill markers stroke"/><rect width="3.175" height="3.175" x="-34.66" y="83.173" rx=".794" ry=".794" style="paint-order:fill markers stroke"/><rect width="3.175" height="3.175" x="26.194" y="83.173" rx=".794" ry=".794" style="paint-order:fill markers stroke"/><rect width="3.175" height="3.175" x="31.485" y="83.173" rx=".794" ry=".794" style="paint-order:fill markers stroke"/><rect width="3.175" height="3.175" x="36.777" y="83.173" rx=".794" ry=".794" style="paint-order:fill markers stroke"/><rect width="3.175" height="3.175" x="-18.785" y="83.173" rx=".794" ry=".794" style="paint-order:fill markers stroke"/><rect width="7.938" height="3.175" x="-13.494" y="77.881" rx=".794" ry=".794" style="paint-order:fill markers stroke"/><rect width="16.933" height="3.175" x="-3.44" y="77.881" rx=".794" ry=".794" style="paint-order:fill markers stroke"/><rect width="3.175" height="3.175" x="-8.731" y="83.173" rx=".794" ry=".794" style="paint-order:fill markers stroke"/><rect width="3.175" height="3.175" x="1.852" y="83.173" rx=".794" ry=".794" style="paint-order:fill markers stroke"/><rect width="3.175" height="3.175" x="15.61" y="83.173" rx=".794" ry=".794" style="paint-order:fill markers stroke"/><rect width="3.175" height="3.175" x="20.902" y="83.173" rx=".794" ry=".794" style="paint-order:fill markers stroke"/><rect width="51.254" height="10.054" x="57.944" y="77.484" rx=".794" ry=".794" style="paint-order:fill markers stroke"/><rect width="3.175" height="3.175" x="-13.494" y="83.173" rx=".794" ry=".794" style="paint-order:fill markers stroke"/><rect width="3.175" height="3.175" x="-3.44" y="83.173" rx=".794" ry=".794" style="paint-order:fill markers stroke"/><rect width="3.175" height="3.175" x="-3.44" y="83.173" rx=".794" ry=".794" style="paint-order:fill markers stroke"/><rect width="6.35" height="3.175" x="7.144" y="83.173" rx=".794" ry=".794" style="paint-order:fill markers stroke"/><rect width="3.175" height="3.175" x="52.652" y="77.881" rx=".794" ry=".794" style="paint-order:fill markers stroke"/><rect width="6.35" height="6.35" x="43.127" y="78.94" rx=".794" ry=".794" style="paint-order:fill markers stroke"/><rect width="3.175" height="3.175" x="52.652" y="83.173" rx=".794" ry=".794" style="paint-order:fill markers stroke"/><rect width="3.175" height="3.175" x="111.31" y="77.881" rx=".794" ry=".794" style="paint-order:fill markers stroke"/><rect width="3.175" height="3.175" x="111.31" y="83.173" rx=".794" ry=".794" style="paint-order:fill markers stroke"/><rect width="6.35" height="3.175" x="116.61" y="77.881" rx=".794" ry=".794" style="paint-order:fill markers stroke"/><rect width="6.35" height="3.175" x="116.61" y="83.173" rx=".794" ry=".794" style="paint-order:fill markers stroke"/><rect width="3.175" height="3.175" x="126.66" y="77.881" rx=".794" ry=".794" style="paint-order:fill markers stroke"/><rect width="3.175" height="3.175" x="126.66" y="83.173" rx=".794" ry=".794" style="paint-order:fill markers stroke"/></g><rect width="47.146" height="34.424" x="48.12" y="66.026" fill="#f2f2f2" stroke="#e6e6e6" stroke-width=".794" style="paint-order:fill markers stroke"/><rect width="78.846" height="3.704" x="101.26" y="65.629" fill="#e6e6e6" style="paint-order:fill markers stroke"/><rect width="65.295" height="2.646" x="101.26" y="73.566" fill="#e6e6e6" style="paint-order:fill markers stroke"/><rect width="53.975" height="2.646" x="101.26" y="78.858" fill="#e6e6e6" style="paint-order:fill markers stroke"/><rect width="62.649" height="2.646" x="101.26" y="84.15" fill="#e6e6e6" style="paint-order:fill markers stroke"/><rect width="57.622" height="2.646" x="101.26" y="89.441" fill="#e6e6e6" style="paint-order:fill markers stroke"/><rect width="69.85" height="2.646" x="47.723" y="109.02" fill="#e6e6e6" style="paint-order:fill markers stroke"/><rect width="69.85" height="2.646" x="47.723" y="114.31" fill="#e6e6e6" style="paint-order:fill markers stroke"/><rect width="69.85" height="2.646" x="47.723" y="119.6" fill="#e6e6e6" style="paint-order:fill markers stroke"/><rect width="69.85" height="2.646" x="47.723" y="124.89" fill="#e6e6e6" style="paint-order:fill markers stroke"/><rect width="69.85" height="2.646" x="120.55" y="109.02" fill="#e6e6e6" style="paint-order:fill markers stroke"/><rect width="69.85" height="2.646" x="120.55" y="114.31" fill="#e6e6e6" style="paint-order:fill markers stroke"/><rect width="69.85" height="2.646" x="120.55" y="119.6" fill="#e6e6e6" style="paint-order:fill markers stroke"/><rect width="69.85" height="2.646" x="120.55" y="124.89" fill="#e6e6e6" style="paint-order:fill markers stroke"/><rect width="69.85" height="2.646" x="47.723" y="130.19" fill="#e6e6e6" style="paint-order:fill markers stroke"/><rect width="69.85" height="2.646" x="47.723" y="135.48" fill="#e6e6e6" style="paint-order:fill markers stroke"/><rect width="69.85" height="2.646" x="47.723" y="140.77" fill="#e6e6e6" style="paint-order:fill markers stroke"/><rect width="59.267" height="2.646" x="120.55" y="130.19" fill="#e6e6e6" style="paint-order:fill markers stroke"/></svg>